# xmcd CD database file
# Copyright (C) 1993-1998 Ti Kan
#
# Track frame offsets:
#  150
#  19697
#  37570
#  56147
#  73422
#  95172
#  111972
#  136350
#  157925
#  183667
#  202265
#  221255
#  244855
#  257145
#
# Disc length: 3654 seconds
#
# Revision: 1
# Processed by: cddbd v1.4b41PL1 Copyright (c) Steve Scherf et al.
# Submitted via: CDWizzard Release:4.35
#
DISCID=d00e440e
DTITLE=Wea - Everlasting love songs 4
DYEAR=1900
DGENRE=
TTITLE0=Slip and side
TTITLE1=Don't let me be longly tonight
TTITLE2=Almaz
TTITLE3=To know him is to love him
TTITLE4=Living without your love
TTITLE5=As tears go by
TTITLE6=Power of love
TTITLE7=One more night
TTITLE8=Will you still love me
TTITLE9=You got it all
TTITLE10=Moon river
TTITLE11=Give a little more lovin'
TTITLE12=somewhere out there 
TTITLE13=Everbody needs a little rain
EXTD=
EXTT0=
EXTT1=
EXTT2=
EXTT3=
EXTT4=
EXTT5=
EXTT6=
EXTT7=
EXTT8=
EXTT9=
EXTT10=
EXTT11=
EXTT12=
EXTT13=
PLAYORDER=
